<svg xmlns="http://www.w3.org/2000/svg" width="205.425" height="219.867" viewBox="0 0 205.425 219.867">
  <g id="Group_9" data-name="Group 9" transform="translate(-854.575 -1500.997)">
    <g id="Group_8" data-name="Group 8">
      <g id="Group_7" data-name="Group 7">
        <g id="Group_6" data-name="Group 6">
          <g id="Group_4" data-name="Group 4">
            <g id="Group_3" data-name="Group 3" transform="translate(4 -2)">
              <g id="logo" transform="translate(830.391 1505.097)">
                <path id="Path_1" data-name="Path 1" d="M195.85,47.4,117.3,4A24.636,24.636,0,0,0,105.219.9a24.938,24.938,0,0,0-12.2,3.153L93.13,4,14.581,47.4A23.063,23.063,0,0,0,2.5,67.43v86.814A23.045,23.045,0,0,0,14.475,174.21l.122.058,78.533,43.407a25.163,25.163,0,0,0,24.286-.058l-.107.058,78.533-43.407a23.063,23.063,0,0,0,12.082-20.025V67.43a23.023,23.023,0,0,0-11.968-19.967Zm-4.025,106.839a7.65,7.65,0,0,1-4,6.656l-.03.015-78.548,43.407a8.377,8.377,0,0,1-8.1-.022l.038.015L22.631,160.906a7.652,7.652,0,0,1-4.025-6.67V67.422a7.65,7.65,0,0,1,4-6.656l.03-.015,78.548-43.407a8.178,8.178,0,0,1,4.032-1.041,8.381,8.381,0,0,1,4.07,1.049l-.046-.015,78.548,43.407a7.643,7.643,0,0,1,4.025,6.67Z" transform="translate(17.685 -3.003)" fill="#fca311"/>
              </g>
              <rect id="Rectangle_5" data-name="Rectangle 5" width="14" height="102" transform="translate(940.003 1552.078) rotate(20)" fill="#fca311"/>
              <rect id="Rectangle_8" data-name="Rectangle 8" width="14" height="103.186" transform="translate(949.469 1557.927) rotate(-20)" fill="#fca311"/>
              <rect id="Rectangle_7" data-name="Rectangle 7" width="15" height="54" transform="matrix(-0.017, 1, -1, -0.017, 978.413, 1599.424)" fill="#fca311"/>
              <rect id="Rectangle_9" data-name="Rectangle 9" width="13" height="21" transform="matrix(-0.017, 1, -1, -0.017, 960.863, 1552.094)" fill="#fca311"/>
            </g>
          </g>
        </g>
      </g>
    </g>
  </g>
</svg>
